<svg xmlns="http://www.w3.org/2000/svg" width="21" height="20" viewBox="0 0 21 20" fill="none">
    <path
        d="M7.28593 10.1938C7.28593 8.41688 8.72564 6.97598 10.5021 6.97598C12.2786 6.97598 13.719 8.41688 13.719 10.1938C13.719 11.9708 12.2786 13.4117 10.5021 13.4117C8.72564 13.4117 7.28593 11.9708 7.28593 10.1938ZM5.54691 10.1938C5.54691 12.9314 7.76534 15.1505 10.5021 15.1505C13.2389 15.1505 15.4573 12.9314 15.4573 10.1938C15.4573 7.4563 13.2389 5.23723 10.5021 5.23723C7.76534 5.23723 5.54691 7.4563 5.54691 10.1938ZM14.4954 5.0407C14.4953 5.2698 14.5632 5.49378 14.6903 5.68432C14.8175 5.87486 14.9983 6.0234 15.2099 6.11116C15.4214 6.19891 15.6543 6.22194 15.8789 6.17734C16.1036 6.13273 16.3099 6.02249 16.472 5.86056C16.634 5.69863 16.7443 5.49228 16.7891 5.2676C16.8339 5.04292 16.811 4.81001 16.7235 4.59832C16.6359 4.38662 16.4876 4.20566 16.2972 4.0783C16.1068 3.95094 15.8829 3.88292 15.6539 3.88283H15.6534C15.3464 3.88297 15.0521 4.00499 14.8349 4.22209C14.6178 4.43919 14.4957 4.73362 14.4954 5.0407ZM6.60348 18.051C5.66264 18.0082 5.15126 17.8514 4.81143 17.719C4.36088 17.5435 4.03942 17.3345 3.70144 16.9969C3.36346 16.6593 3.15424 16.3381 2.97962 15.8874C2.84714 15.5476 2.69042 15.0359 2.64765 14.0948C2.60087 13.0773 2.59153 12.7717 2.59153 10.1939C2.59153 7.61616 2.60164 7.31136 2.64765 6.29302C2.6905 5.35191 2.84838 4.84124 2.97962 4.50045C3.15501 4.04978 3.36392 3.72823 3.70144 3.39015C4.03896 3.05206 4.36011 2.84279 4.81143 2.66811C5.15111 2.5356 5.66264 2.37884 6.60348 2.33606C7.62067 2.28926 7.92623 2.27992 10.5021 2.27992C13.078 2.27992 13.3838 2.29003 14.4019 2.33606C15.3427 2.37891 15.8532 2.53684 16.1939 2.66811C16.6445 2.84279 16.9659 3.05253 17.3039 3.39015C17.6419 3.72776 17.8503 4.04978 18.0257 4.50045C18.1582 4.84023 18.3149 5.35191 18.3577 6.29302C18.4045 7.31136 18.4138 7.61616 18.4138 10.1939C18.4138 12.7717 18.4045 13.0765 18.3577 14.0948C18.3149 15.0359 18.1574 15.5475 18.0257 15.8874C17.8503 16.3381 17.6414 16.6596 17.3039 16.9969C16.9664 17.3342 16.6445 17.5435 16.1939 17.719C15.8542 17.8515 15.3427 18.0082 14.4019 18.051C13.3847 18.0978 13.0791 18.1072 10.5021 18.1072C7.92507 18.1072 7.62036 18.0978 6.60348 18.051ZM6.52358 0.599473C5.49627 0.64627 4.79429 0.80921 4.18124 1.04783C3.54634 1.29425 3.00887 1.62484 2.47179 2.16122C1.93471 2.69761 1.60506 3.23609 1.35872 3.87117C1.12017 4.48478 0.957275 5.18658 0.910491 6.21418C0.862936 7.2434 0.852051 7.57245 0.852051 10.1938C0.852051 12.8152 0.862936 13.1443 0.910491 14.1735C0.957275 15.2012 1.12017 15.9029 1.35872 16.5165C1.60506 17.1512 1.93479 17.6903 2.47179 18.2265C3.0088 18.7626 3.54634 19.0928 4.18124 19.3399C4.79545 19.5785 5.49627 19.7414 6.52358 19.7882C7.55304 19.835 7.88145 19.8467 10.5021 19.8467C13.1227 19.8467 13.4517 19.8358 14.4806 19.7882C15.508 19.7414 16.2095 19.5785 16.823 19.3399C17.4575 19.0928 17.9953 18.7629 18.5324 18.2265C19.0695 17.6901 19.3984 17.1512 19.6455 16.5165C19.884 15.9029 20.0477 15.2011 20.0937 14.1735C20.1405 13.1435 20.1514 12.8152 20.1514 10.1938C20.1514 7.57245 20.1405 7.2434 20.0937 6.21418C20.0469 5.1865 19.884 4.48439 19.6455 3.87117C19.3984 3.23647 19.0686 2.69846 18.5324 2.16122C17.9962 1.62399 17.4575 1.29425 16.8237 1.04783C16.2095 0.80921 15.5079 0.645498 14.4814 0.599473C13.4525 0.552676 13.1235 0.541016 10.5029 0.541016C7.88223 0.541016 7.55304 0.551904 6.52358 0.599473Z"
        fill="#FC744A" />
</svg>