<?xml version="1.0" encoding="UTF-8"?>
<svg xmlns="http://www.w3.org/2000/svg" width="143" height="51" viewBox="0 0 143 51" fill="none">
  <g clip-path="url(#clip0_249_694)">
    <path d="M38.0357 16.5728C37.6437 16.5728 37.2517 16.5466 36.8597 16.4942C35.1011 16.2584 33.4748 15.5144 32.1559 14.346L23.9453 6.99519L25.2696 5.54913L33.4801 12.8947C34.5025 13.8011 35.7632 14.3775 37.1246 14.5609C38.3959 14.7285 39.6884 14.5399 40.859 14.016L68.0862 0.28879C68.0862 0.28879 68.1286 0.267832 68.1498 0.262593C69.2728 -0.208951 70.5547 -0.0255729 71.4234 0.728898C72.1015 1.32095 72.4882 2.17497 72.4882 3.0709V7.2886L92.649 8.07451C92.6967 8.07451 92.7497 8.07975 92.7973 8.09022L125.835 14.4299L125.459 16.3475L92.4954 10.0183L71.4605 9.20097C70.9308 9.18001 70.5123 8.75039 70.5123 8.22645V3.06566C70.5123 2.7251 70.3693 2.41598 70.115 2.19068C69.8237 1.93395 69.3682 1.88156 68.9497 2.04922L41.7384 15.7659C41.7384 15.7659 41.7119 15.7764 41.7013 15.7816C40.5465 16.3056 39.2964 16.5728 38.041 16.5728H38.0357Z" fill="#FC744A"></path>
    <path d="M13.1774 30.8279C10.4176 29.2666 8.00743 27.2285 6.01041 24.7817L0.702696 17.7819C0.43784 17.4361 0.432543 16.9646 0.686805 16.6083C0.941067 16.2572 1.39662 16.1105 1.8098 16.2415H1.81509L7.74257 18.2325C7.28172 16.5402 6.217 13.8943 3.86508 12.4272C3.37245 12.1181 3.05462 11.5785 3.05462 11.0021C3.05462 10.2215 3.59493 9.56655 4.33652 9.38841L14.0673 6.95734C20.461 5.40648 27.0294 4.81443 33.5925 5.20215L56.01 6.51723L55.8934 8.46628L33.476 7.1512C27.1089 6.7792 20.7364 7.35029 14.5441 8.85399L5.43303 11.1279C9.41117 14.0148 9.99915 19.3694 10.0203 19.6052L10.174 21.1141L4.16172 19.097L7.56247 23.5714C9.38468 25.8034 11.6042 27.6791 14.1521 29.1251L13.1721 30.8175L13.1774 30.8279Z" fill="#FC744A"></path>
    <path d="M137.772 26.3065L131.42 2.74501C131.341 2.43589 131.145 2.20011 130.864 2.06389C130.583 1.92767 130.276 1.91719 129.985 2.03769L107.144 12.5898L106.307 10.8189L129.185 0.251065C130.027 -0.105212 130.949 -0.0790155 131.738 0.308698C132.527 0.696412 133.11 1.40373 133.327 2.24727L139.673 25.8035L137.766 26.3065H137.772Z" fill="#FC744A"></path>
    <path d="M9.96346 19.3383L8.13672 20.083L12.3051 30.086L14.1318 29.3412L9.96346 19.3383Z" fill="#FC744A"></path>
    <path d="M38.8149 44.2155L36.5743 21.8486C36.5001 21.0994 36.071 20.4654 35.3983 20.1092C34.7256 19.7529 33.9522 19.7581 33.2847 20.1144L13.6854 30.5669L12.7478 28.8484L32.3472 18.3959C33.592 17.7305 35.0805 17.7305 36.3253 18.3854C37.5754 19.0403 38.4018 20.2663 38.5395 21.6548L40.7802 44.0217L38.8149 44.2155Z" fill="#FC744A"></path>
    <path d="M94.4491 41.6486C94.0889 41.6486 93.7234 41.6066 93.3632 41.5228L84.0879 39.3904L84.5328 37.4885L93.8081 39.6209C94.6345 39.8095 95.4926 39.6209 96.16 39.097C96.8275 38.573 97.2089 37.7924 97.2089 36.9488V30.9707H99.1847V36.9488C99.1847 38.3897 98.5331 39.7309 97.389 40.6269C96.5361 41.2923 95.5085 41.6433 94.4491 41.6433V41.6486Z" fill="#FC744A"></path>
    <path d="M57.5685 50.3874C57.0812 50.3874 56.5832 50.3665 56.0853 50.3193C52.8805 50.0259 49.7234 49.3081 46.7147 48.1817C44.5641 47.38 42.4717 46.4422 40.5012 45.4048L13.2051 30.8393L14.1427 29.1208L41.4334 43.681C43.3245 44.6818 45.3374 45.5777 47.4086 46.3531C50.2532 47.4167 53.2354 48.0978 56.2654 48.3755C59.7827 48.6951 63.1729 47.6263 66.0227 46.5313L72.6706 43.5972L108.945 24.0753L120.657 15.6451C122.787 14.0157 125.78 13.8742 128.084 15.3046L128.216 15.4041L142.021 27.68C142.503 28.1096 142.635 28.7855 142.349 29.3566C142.063 29.9329 141.443 30.2368 140.802 30.1215L133.863 28.8379L113.533 24.7669C112.394 24.5364 111.97 24.7302 109.925 25.7676L73.5128 45.3629L66.7643 48.3389C64.084 49.371 60.9428 50.3822 57.5685 50.3822V50.3874ZM113.983 22.865L134.244 26.9255L139.261 27.8529L126.961 16.9183C125.366 15.9647 123.316 16.0748 121.838 17.2065L113.978 22.865H113.983Z" fill="#FC744A"></path>
    <path d="M72.4875 8.2207H70.5117V44.472H72.4875V8.2207Z" fill="#FC744A"></path>
    <path d="M15.2827 15.5926C16.4236 15.5926 17.3486 14.6777 17.3486 13.5492C17.3486 12.4207 16.4236 11.5059 15.2827 11.5059C14.1417 11.5059 13.2168 12.4207 13.2168 13.5492C13.2168 14.6777 14.1417 15.5926 15.2827 15.5926Z" fill="#FC744A"></path>
  </g>
  <defs>
    <clipPath id="clip0_249_694">
      <rect width="142" height="50.3871" fill="white" transform="translate(0.5)"></rect>
    </clipPath>
  </defs>
</svg>
