<svg xmlns="http://www.w3.org/2000/svg" width="25" height="24" viewBox="0 0 25 24" fill="none">
    <path
        d="M18.7478 22C17.9145 22 17.2061 21.7083 16.6228 21.125C16.0395 20.5417 15.7478 19.8333 15.7478 19C15.7478 18.8833 15.7561 18.7623 15.7728 18.637C15.7895 18.5117 15.8145 18.3993 15.8478 18.3L8.7978 14.2C8.51447 14.45 8.1978 14.646 7.8478 14.788C7.4978 14.93 7.13114 15.0007 6.7478 15C5.91447 15 5.20614 14.7083 4.6228 14.125C4.03947 13.5417 3.7478 12.8333 3.7478 12C3.7478 11.1667 4.03947 10.4583 4.6228 9.875C5.20614 9.29167 5.91447 9 6.7478 9C7.13114 9 7.4978 9.071 7.8478 9.213C8.1978 9.355 8.51447 9.55067 8.7978 9.8L15.8478 5.7C15.8145 5.6 15.7895 5.48767 15.7728 5.363C15.7561 5.23833 15.7478 5.11733 15.7478 5C15.7478 4.16667 16.0395 3.45833 16.6228 2.875C17.2061 2.29167 17.9145 2 18.7478 2C19.5811 2 20.2895 2.29167 20.8728 2.875C21.4561 3.45833 21.7478 4.16667 21.7478 5C21.7478 5.83333 21.4561 6.54167 20.8728 7.125C20.2895 7.70833 19.5811 8 18.7478 8C18.3645 8 17.9978 7.92933 17.6478 7.788C17.2978 7.64667 16.9811 7.45067 16.6978 7.2L9.6478 11.3C9.68114 11.4 9.70614 11.5127 9.7228 11.638C9.73947 11.7633 9.7478 11.884 9.7478 12C9.7478 12.1167 9.73947 12.2377 9.7228 12.363C9.70614 12.4883 9.68114 12.6007 9.6478 12.7L16.6978 16.8C16.9811 16.55 17.2978 16.3543 17.6478 16.213C17.9978 16.0717 18.3645 16.0007 18.7478 16C19.5811 16 20.2895 16.2917 20.8728 16.875C21.4561 17.4583 21.7478 18.1667 21.7478 19C21.7478 19.8333 21.4561 20.5417 20.8728 21.125C20.2895 21.7083 19.5811 22 18.7478 22Z"
        fill="#FC744A" />
</svg>
    