<?xml version="1.0" encoding="UTF-8"?>
<svg xmlns="http://www.w3.org/2000/svg" width="433" height="113" viewBox="0 0 433 113" fill="none">
  <path d="M29.19 0.609985C52.66 0.609985 57.98 17.04 57.98 32.37V36.13H42.18V32.37C42.18 27.21 41.71 16.57 29.19 16.57C16.67 16.57 16.36 26.27 16.36 29.87V30.5C16.36 39.58 21.99 44.11 30.44 48.03C47.34 55.85 57.98 60.86 57.98 81.67C57.98 99.04 50.47 112.34 29.19 112.34C5.72 112.34 0.399994 95.91 0.399994 80.58V70.88H16.2V80.58C16.2 85.74 16.67 96.38 29.19 96.38C41.71 96.38 42.02 86.68 42.02 83.08V82.45C42.02 74.63 39.2 70.09 27.94 65.08C11.04 57.57 0.399994 50.68 0.399994 31.28C0.399994 13.44 9.15999 0.609985 29.19 0.609985Z" fill="#FFF"></path>
  <path d="M65.68 110.3L82.27 2.65002H109.81L126.4 110.3H109.97L106.84 89.18H85.25L82.12 110.3H65.69H65.68ZM104.33 73.84L96.04 17.98L87.75 73.84H104.34H104.33Z" fill="#FFF"></path>
  <path d="M138.09 2.65002H155.3V93.09H195.67V110.3H138.09V2.65002Z" fill="#FFF"></path>
  <path d="M206.94 2.65002H223.21L235.73 35.35L248.25 2.65002H264.52V110.3H248.25V45.21L235.73 77.6L223.21 45.21V110.3H206.94V2.65002Z" fill="#FFF"></path>
  <path d="M275.78 80.57V32.38C275.78 13.92 285.17 0.619995 304.57 0.619995C323.97 0.619995 333.36 13.92 333.36 32.38V80.57C333.36 99.03 323.97 112.33 304.57 112.33C285.17 112.33 275.78 99.03 275.78 80.57ZM316.93 32.38C316.93 27.84 316.77 16.73 304.57 16.73C292.37 16.73 292.21 27.84 292.21 32.38V80.57C292.21 85.11 292.37 96.22 304.57 96.22C316.77 96.22 316.93 85.11 316.93 80.57V32.38Z" fill="#FFF"></path>
  <path d="M360.9 2.65002L385.94 66.18V2.65002H402.21V110.3H385.94L360.9 46.77V110.3H344.63V2.65002H360.9Z" fill="#FFF"></path>
  <path d="M413.48 90.9H432.88V110.3H413.48V90.9Z" fill="#FFF"></path>
</svg>
