<svg xmlns="http://www.w3.org/2000/svg" width="17" height="20" viewBox="0 0 17 20" fill="none">
    <path
        d="M14.3863 4.76883C14.2583 4.70269 14.1337 4.63019 14.013 4.55159C13.662 4.31951 13.3401 4.04606 13.0544 3.73712C12.3394 2.9191 12.0724 2.08922 11.9741 1.50819H11.978C11.8959 1.02591 11.9298 0.713867 11.935 0.713867H8.67867V13.3054C8.67867 13.4744 8.67867 13.6415 8.67156 13.8066C8.67156 13.8271 8.66958 13.8461 8.6684 13.8682C8.6684 13.8773 8.6684 13.8868 8.66642 13.8963C8.66642 13.8986 8.66642 13.901 8.66642 13.9034C8.6321 14.3551 8.48727 14.7916 8.24469 15.1742C8.00211 15.5569 7.66921 15.8741 7.27527 16.0979C6.86469 16.3315 6.40032 16.454 5.92796 16.4534C4.4108 16.4534 3.1812 15.2163 3.1812 13.6885C3.1812 12.1607 4.4108 10.9236 5.92796 10.9236C6.21515 10.9233 6.50057 10.9685 6.77363 11.0575L6.77758 7.74192C5.94864 7.63484 5.1065 7.70072 4.3043 7.9354C3.5021 8.17008 2.75723 8.56847 2.1167 9.10542C1.55545 9.59308 1.0836 10.1749 0.722387 10.8248C0.584931 11.0618 0.0663092 12.0141 0.0035058 13.5597C-0.0359932 14.437 0.227465 15.3459 0.353072 15.7215V15.7294C0.43207 15.9506 0.738187 16.7054 1.23706 17.3418C1.63933 17.8522 2.1146 18.3006 2.64757 18.6725V18.6646L2.65547 18.6725C4.23187 19.7437 5.9797 19.6734 5.9797 19.6734C6.28226 19.6611 7.29581 19.6734 8.44681 19.1279C9.72341 18.5232 10.4502 17.6222 10.4502 17.6222C10.9145 17.0839 11.2837 16.4703 11.5419 15.808C11.8366 15.0334 11.935 14.1044 11.935 13.7331V7.05306C11.9745 7.07676 12.5006 7.42474 12.5006 7.42474C12.5006 7.42474 13.2586 7.91058 14.4412 8.22697C15.2896 8.45211 16.4327 8.49951 16.4327 8.49951V5.26691C16.0322 5.31036 15.2189 5.18397 14.3863 4.76883Z"
        fill="#FC744A" />
</svg>