<svg xmlns="http://www.w3.org/2000/svg" width="21" height="17" viewBox="0 0 21 17" fill="none">
    <path
        d="M20.3332 2.02196C19.6962 2.29633 19.0266 2.48739 18.3408 2.59041C18.6614 2.5354 19.1332 1.95778 19.3209 1.72399C19.6062 1.37133 19.8237 0.968738 19.9622 0.536669C19.9622 0.504579 19.9942 0.458736 19.9622 0.435815C19.946 0.426988 19.9279 0.422362 19.9095 0.422362C19.8911 0.422362 19.873 0.426988 19.8568 0.435815C19.1122 0.839422 18.3197 1.14747 17.498 1.35266C17.4694 1.36142 17.4389 1.36221 17.4099 1.35494C17.3808 1.34767 17.3543 1.33262 17.3332 1.31141C17.2692 1.23518 17.2004 1.16321 17.127 1.09595C16.7919 0.795426 16.4117 0.549462 16.0003 0.367052C15.445 0.139021 14.8452 0.0402656 14.2461 0.0782441C13.6649 0.114986 13.0974 0.271029 12.5789 0.536669C12.0684 0.81673 11.6197 1.1972 11.2598 1.65522C10.8813 2.12665 10.608 2.67374 10.4583 3.25971C10.3349 3.81709 10.3209 4.39316 10.4171 4.95588C10.4171 5.05215 10.4171 5.0659 10.3347 5.05215C7.06899 4.5708 4.38959 3.41099 2.20027 0.921745C2.10408 0.811723 2.0537 0.811723 1.97584 0.921745C1.02316 2.37037 1.48576 4.66249 2.6766 5.7948C2.83691 5.94608 3.0018 6.09277 3.17584 6.2303C2.62985 6.1915 2.09719 6.04341 1.60942 5.7948C1.51782 5.7352 1.46744 5.76729 1.46286 5.87731C1.44987 6.02984 1.44987 6.18321 1.46286 6.33574C1.55843 7.06674 1.84625 7.75922 2.29691 8.34237C2.74756 8.92552 3.34487 9.37841 4.02775 9.65473C4.19422 9.7261 4.36768 9.77987 4.54531 9.81518C4.03986 9.91478 3.52145 9.93027 3.01096 9.86102C2.90103 9.8381 2.85981 9.8977 2.90103 10.0031C3.57432 11.8368 5.03539 12.3961 6.10715 12.7078C6.25372 12.7308 6.40028 12.7308 6.56517 12.7674C6.56517 12.7674 6.56517 12.7674 6.53769 12.7949C6.22166 13.3726 4.94379 13.7622 4.35753 13.9639C3.28745 14.3486 2.14655 14.4957 1.014 14.3948C0.835374 14.3673 0.794152 14.3719 0.748351 14.3948C0.702549 14.4178 0.748351 14.4682 0.798732 14.514C1.02774 14.6653 1.25675 14.7983 1.49492 14.9266C2.20395 15.3137 2.95354 15.6212 3.73004 15.8435C7.75143 16.9528 12.2766 16.1369 15.295 13.1342C17.6675 10.7779 18.5011 7.52764 18.5011 4.27283C18.5011 4.14905 18.6522 4.07571 18.7393 4.01153C19.3395 3.54343 19.8687 2.99061 20.3103 2.37037C20.3867 2.27791 20.4259 2.16019 20.4202 2.0403C20.4202 1.97154 20.4202 1.98529 20.3332 2.02196Z"
        fill="#FC744A" />
</svg>