<svg xmlns="http://www.w3.org/2000/svg" width="22" height="16" viewBox="0 0 22 16" fill="none">
    <path fill-rule="evenodd" clip-rule="evenodd"
        d="M19.597 0.937933C20.5449 1.19394 21.29 1.94094 21.5419 2.88783C22.0001 4.60626 22.0001 8.19392 22.0001 8.19392C22.0001 8.19392 22.0001 11.7816 21.5419 13.5C21.2865 14.4504 20.5414 15.1974 19.597 15.4499C17.8829 15.9093 11.0057 15.9093 11.0057 15.9093C11.0057 15.9093 4.13197 15.9093 2.41441 15.4499C1.46643 15.1939 0.72134 14.4469 0.469479 13.5C0.0112305 11.7816 0.0112305 8.19392 0.0112305 8.19392C0.0112305 8.19392 0.0112305 4.60626 0.469479 2.88783C0.724838 1.93743 1.46993 1.19044 2.41441 0.937933C4.13197 0.478516 11.0057 0.478516 11.0057 0.478516C11.0057 0.478516 17.8829 0.478516 19.597 0.937933ZM14.2076 7.86062L9.0969 5.02135V11.2678L14.2076 7.86062Z"
        fill="#FC744A" />
</svg>